{"asset":{"version":"2.0","generator":"THREE.GLTFExporter"},"scenes":[{"nodes":[0],"name":"AuxScene"}],"scene":0,"nodes":[{"mesh":0}],"bufferViews":[{"buffer":0,"byteOffset":0,"byteLength":162792,"target":34962,"byteStride":12},{"buffer":0,"byteOffset":162792,"byteLength":162792,"target":34962,"byteStride":12}],"buffers":[{"byteLength":325584,"uri":"data:application/octet-stream;base64,"}],"accessors":[{"bufferView":0,"componentType":5126,"count":13566,"max":[157.36805725097656,70.70186614990234,99.50001525878906],"min":[-144.4319610595703,-17.09813690185547,-99.4000015258789],"type":"VEC3"},{"bufferView":1,"componentType":5126,"count":13566,"max":[0.5547011494636536,1,0.9407229423522949],"min":[-0.5547070503234863,0.048550572246313095,-0.94072425365448],"type":"VEC3"}],"materials":[{"pbrMetallicRoughness":{"baseColorFactor":[0.5019607843137255,0.5019607843137255,0.5019607843137255,1],"metallicFactor":0,"roughnessFactor":1}}],"meshes":[{"primitives":[{"mode":4,"attributes":{"POSITION":0,"NORMAL":1},"material":0}]}]}